<?xml version="1.0" encoding="utf-8"?>
<svg xmlns="http://www.w3.org/2000/svg" xmlns:xlink="http://www.w3.org/1999/xlink" width="45" height="45">
    <g id="skype_n" viewBox="277.5 277 45 45">
        <path fill="#004cd1" d="M298.473,298.13c-3.38-0.838-1.53-3.789,1.209-3.745c2.658,0.043,4.01,2.907,5.215,2.759
		c1.208-0.149,2.236-1.994,0.338-3.645c-1.643-1.43-3.718-2.218-6.907-1.922c-2.502,0.232-4.878,1.873-5.168,5.074
		c-0.29,3.203,3.431,4.829,6.377,5.273c2.064,0.31,4.88,1.329,3.189,3.299c-1.554,1.813-4.493,0.692-5.266,0.2
		c-0.773-0.495-1.644-2.269-3.094-2.17c-1.452,0.097-2.166,2.04-0.385,3.744c1.595,1.526,3.334,2.364,7.052,2.167
		c3.722-0.198,7.054-3.546,5.749-6.7C305.479,299.311,301.857,298.968,298.473,298.13z"/>
    	<path fill="#004cd1" d="M300,277.5c-12.427,0-22.5,10.073-22.5,22.5c0,12.426,10.073,22.5,22.5,22.5
		c12.427,0,22.5-10.074,22.5-22.5C322.5,287.573,312.427,277.5,300,277.5z M305.756,312.729c-1.353,0-2.616-0.394-3.688-1.067
		c-0.69,0.127-1.4,0.198-2.129,0.198c-6.458,0-11.688-5.282-11.688-11.798c0-0.631,0.049-1.253,0.145-1.859
		c-0.711-1.109-1.124-2.43-1.124-3.853c0-3.909,3.121-7.078,6.975-7.078c1.405,0,2.711,0.423,3.81,1.149
		c0.612-0.103,1.242-0.156,1.883-0.156c6.455,0,11.688,5.284,11.688,11.799c0,0.541-0.039,1.075-0.109,1.601
		c0.765,1.135,1.211,2.508,1.212,3.987C312.731,309.562,309.609,312.729,305.756,312.729z"/>
    </g>
    <g id="phone_n" viewBox="338.678 110.5 45 45">
        <path fill="#004cd1" d="M361.178,110.5c-12.427,0-22.5,10.073-22.5,22.5s10.073,22.5,22.5,22.5s22.5-10.073,22.5-22.5
	    S373.604,110.5,361.178,110.5z M374.611,142.203c-1.034,1.601-1.934,3.261-6.258,3.358c-4.418,0.004-8.989-3.655-12.318-7.307
	    c-3.323-3.232-6.396-7.408-6.394-11.457c0.1-4.324,1.76-5.224,3.36-6.258c0,0,0.876-0.368,1.639,0.295
	    c0.762,0.663,4.103,4.005,4.103,4.005s1.188,0.991,0.369,2.089c-0.652,0.874-2.157,2.484-2.354,2.696l0.564,1.063
	    c0.755,1.244,2.194,3.43,4.349,5.201c1.453,1.195,3.911,2.506,3.91,2.504c0.354-0.329,1.823-1.689,2.641-2.301
	    c1.098-0.82,2.088,0.367,2.088,0.367s3.342,3.343,4.006,4.105C374.979,141.327,374.611,142.203,374.611,142.203z"/>
    </g>
    <g id="envelope_n" viewBox="1138.75 328.75 45 45">
        <path fill="#004cd1" d="M1161.25,328.75c-12.427,0-22.5,10.073-22.5,22.5s10.073,22.5,22.5,22.5s22.5-10.073,22.5-22.5
	    S1173.677,328.75,1161.25,328.75z M1147.969,346.354l7.269,4.442l-7.269,9.138V346.354z M1148.799,360.895l7.51-9.443l4.926,3.012
	    l4.918-3.028l7.518,9.46H1148.799z M1174.531,359.974l-7.311-9.197l7.311-4.502V359.974z M1174.531,344.811L1161.234,353
	    l-13.265-8.106v-2.208h26.563V344.811z"/>
    </g>
    <g id="map_n" viewBox="333.75 72.532 45 45">
        <circle fill="#004cd1" cx="356.342" cy="92.018" r="5.854"/>
	    <path fill="#004cd1" d="M356.25,72.532c-12.427,0-22.5,10.073-22.5,22.5s10.073,22.5,22.5,22.5s22.5-10.073,22.5-22.5
		S368.677,72.532,356.25,72.532z M356.25,110.414c-1.438-1.127-11.252-9.062-11.252-17.422c0-6.203,4.98-11.24,11.16-11.339v-0.004
		c0.031,0,0.062,0.001,0.092,0.001s0.061-0.001,0.092-0.001v0.004c6.18,0.099,11.16,5.136,11.16,11.339
		C367.502,101.352,357.688,109.287,356.25,110.414z"/>
    </g>
</svg>
        