<svg xmlns="http://www.w3.org/2000/svg" viewBox="0 0 69 69" width="69" height="69">
	<defs>
		<clipPath clipPathUnits="userSpaceOnUse" id="cp1">
			<path d="M0 0L69 0L69 69L0 69Z" />
		</clipPath>
	</defs>
	<style>
		tspan { white-space:pre }
		.shp0 { fill: #4575ca } 
		.shp1 { fill: none;stroke: #ffffff;stroke-width: 1.812 } 
	</style>
	<g id="Page 1" clip-path="url(#cp1)">
		<path id="Path 1" class="shp0" d="M13.71 8.64C17.08 8.64 19.8 11.37 19.8 14.73C19.8 18.1 17.08 20.83 13.71 20.83C10.34 20.83 7.61 18.1 7.61 14.73C7.61 11.37 10.34 8.64 13.71 8.64ZM35.5 17.84C34.43 15.92 32.6 15.87 31.43 17.74L25.69 26.91C24.52 28.78 22.19 29.37 20.52 28.23C18.84 27.09 16.31 27.52 14.88 29.2L9.16 35.94C7.74 37.62 8.37 38.99 10.57 38.99L43.33 38.99C45.53 38.99 46.45 37.42 45.38 35.5L35.5 17.84Z" />
		<path id="Path 2" fill-rule="evenodd" class="shp0" d="M41.71 54.39L2.07 54.39C0.93 54.39 0 53.45 0 52.31L0 2.15C0 1.01 0.93 0.08 2.07 0.08L52.93 0.08C54.07 0.08 55 1.01 55 2.15L55 41.47C47.78 41.47 41.92 47.22 41.71 54.39ZM5.25 41.18L49.14 41.18L49.14 5.68L5.25 5.68L5.25 41.18Z" />
		<path id="Path 3" fill-rule="evenodd" class="shp0" d="M67.84 54.78C67.84 61.87 62.09 67.62 55 67.62C47.91 67.62 42.16 61.87 42.16 54.78C42.16 47.69 47.91 41.94 55 41.94C62.09 41.94 67.84 47.69 67.84 54.78ZM63.17 53.61L56.17 53.61L56.17 46.61L53.83 46.61L53.83 53.61L46.83 53.61L46.83 55.95L53.83 55.95L53.83 62.95L56.17 62.95L56.17 55.95L63.17 55.95L63.17 53.61Z" />
		<path id="Path 4" class="shp1" d="M68.31 54.78C68.31 62.13 62.35 68.09 55 68.09C47.65 68.09 41.69 62.13 41.69 54.78C41.69 47.43 47.65 41.47 55 41.47C62.35 41.47 68.31 47.43 68.31 54.78Z" />
	</g>
</svg>