<svg xmlns="http://www.w3.org/2000/svg" viewBox="0 0 92 76" width="92" height="76">
	<g id="Page 1">
		<path id="Path 1" class="shp0" fill='rgba(255,255,255, .1)' d="M17.96,10.99c-13.68,11.17 -20.76,25.56 -16.92,43.53c3.84,17.93 24.02,26.44 37.35,16.26c5.28,-4.03 6.57,-9.52 5.46,-15.57c-1.04,-5.65 -4.61,-9.93 -10.26,-11.01c-3.68,-0.7 -7.78,0.17 -11.59,0.87c-4.69,0.86 -7.07,-0.19 -8.08,-4.85c-1.59,-7.34 0.24,-14.1 5.42,-19.34c4.52,-4.57 9.71,-8.56 14.99,-12.26c3.03,-2.12 3.82,-4.19 2.05,-8.63c-6.36,3.73 -13.02,6.58 -18.42,10.99zM51.4,27.65c-4.16,8.63 -5.74,17.66 -3.4,27.13c4.33,17.57 23.93,26.08 37.18,16.16c5.03,-3.76 7.34,-10.22 5.56,-16.44c-1.76,-6.16 -5.99,-10.14 -12.29,-10.91c-3.13,-0.38 -6.51,0.75 -9.69,1.53c-4.25,1.03 -6.87,-0.44 -7.8,-4.62c-1.65,-7.34 0.07,-14.12 5.21,-19.4c4.48,-4.6 9.68,-8.59 14.94,-12.33c2.9,-2.06 4.15,-4.01 2.74,-7.63c-13.52,3.34 -26.29,13.76 -32.44,26.51z" />
	</g>
</svg>